# xmcd CD database file
#
# Track frame offsets:
#	150
#	171442
#	230895
#
# Disc length: 3921 seconds
#
# Revision: 0
# Processed by: cddbd v1.5.1PL0 Copyright (c) Steve Scherf et al.
# Submitted via: CDex 1.51
#
DISCID=250f4f03
DTITLE=Fred Anderson - Blue Winter Disc 2
DYEAR=2005
DGENRE=Jazz
TTITLE0=II
TTITLE1=III
TTITLE2=IV
EXTD=YEAR: 2005
EXTT0=
EXTT1=
EXTT2=
PLAYORDER=
